<svg xmlns="http://www.w3.org/2000/svg" width="91" height="82" viewBox="0 0 91 82"><defs><style>.a{fill:#fff;}.b{fill:#1b1b1b;}.c{fill:#f9cc29;}</style></defs><g transform="translate(17.672 4.005)"><path class="a" d="M265.593,263.512s27.032-33.593-8.792-33.729c-32.029,5.909,7.133,37.052,7.133,37.052Z" transform="translate(-241.706 -227.266)"/><path class="b" d="M264.789,270.745l2.922-5.854c2.1-2.652,13.98-18.425,8.93-29.085-2.662-5.616-9.335-8.485-19.835-8.524h-.234l-.23.042c-8.247,1.522-13.07,4.872-14.333,9.959-3.092,12.457,17.952,29.623,20.361,31.539Zm-7.767-38.429c8.265.066,13.342,1.967,15.089,5.648,3.285,6.925-5,19.661-8.475,23.984l-.168.21-.367.735c-7.915-6.852-17.807-18.022-16.224-24.394C247.613,235.538,251.025,233.459,257.022,232.316Z" transform="translate(-241.701 -227.282)"/></g><g transform="translate(0)"><path class="a" d="M292.641,254.573s5.241-42.858-25.236-23.961c-24.07,22.013,25.579,27.662,25.579,27.662Z" transform="translate(-258.307 -223.287)"/><path class="b" d="M295.5,261.139l-.6-6.519c.381-3.365,2.155-23.058-7.747-29.424-5.217-3.355-12.393-2.248-21.328,3.291l-.37.281c-6.2,5.669-8.526,11.071-6.916,16.06,3.939,12.214,30.845,15.615,33.9,15.963Zm-15.138-32.813a7.392,7.392,0,0,1,4.083,1.108c6.45,4.147,6.115,19.344,5.442,24.849l-.033.269.076.82c-10.327-1.616-24.61-5.847-26.624-12.1-.936-2.9.865-6.479,5.352-10.631C273.346,229.769,277.263,228.326,280.366,228.326Z" transform="translate(-258.046 -223.303)"/></g><g transform="translate(72.202 17.845)"><path class="b" d="M207.166,250.752a2.5,2.5,0,0,0,2.009-1.008,9.972,9.972,0,0,1,11-3.123,2.515,2.515,0,0,0,1.547-4.786,14.979,14.979,0,0,0-16.572,4.907,2.522,2.522,0,0,0,.526,3.519A2.5,2.5,0,0,0,207.166,250.752Z" transform="translate(-204.66 -241.033)"/></g><g transform="translate(65.762 5.588)"><path class="b" d="M216.684,248.482a2.263,2.263,0,0,0,.234-.011,2.513,2.513,0,0,0,2.267-2.723c-.029-.377-.547-8.646,9.007-12A2.516,2.516,0,0,0,226.534,229c-10.675,3.75-12.743,12.892-12.345,17.2A2.511,2.511,0,0,0,216.684,248.482Z" transform="translate(-214.144 -228.855)"/></g><g transform="translate(7.749 22.484)"><path class="c" d="M256.879,248.388s23.1-2.922,27.759,13.636S269.69,285.6,265.226,286.375s-6.017,3.311-6.017,3.311-11.842,19.676-28.341,7.4S224.656,257.155,256.879,248.388Z" transform="translate(-220.589 -245.626)"/><path class="b" d="M241.73,303.655a17.441,17.441,0,0,0,3.4-.336c9.9-1.961,15.978-11.893,16.232-12.316h0s1.136-1.58,4.3-2.133c4.26-.744,14.621-4.774,19.456-12.484a18.025,18.025,0,0,0,1.939-15.029c-4.148-14.745-21.754-16.553-30.484-15.449l-.343.067c-18.759,5.1-32.577,17.429-35.2,31.4a21.291,21.291,0,0,0,8.356,21.752A20.609,20.609,0,0,0,241.73,303.655Zm19.038-52.922c6.178,0,18.474,1.378,21.46,11.992a13.006,13.006,0,0,1-1.357,10.981c-4.284,6.832-13.916,9.831-16.071,10.207-5.422.946-7.5,4.113-7.724,4.471-.06.1-5.232,8.491-12.945,10-3.844.755-7.807-.356-11.768-3.3a16.214,16.214,0,0,1-6.414-16.776c1.721-9.152,10.979-21.806,31.4-27.424C257.778,250.842,259.031,250.733,260.768,250.733Z" transform="translate(-220.592 -245.642)"/></g><g transform="translate(13.857 72.786)"><path class="b" d="M274.014,297.633c-1.144,1.947.257,7.2.257,7.2s5.622-1.1,6.766-3.045a4.08,4.08,0,1,0-7.023-4.156Z" transform="translate(-273.564 -295.62)"/></g><g transform="translate(23.013 25.247)"><path class="b" d="M261.671,248.387s1.359,29.22,10.871,35.455l-6.791,4.181-4.8,5.629s-22.962-24.81-20.05-33.577,14.077-9.481,14.077-9.481Z" transform="translate(-240.645 -248.387)"/></g><g transform="translate(10.258 49.403)"><path class="b" d="M262.655,272.387c-.294.974,19.145,28.878,22.588,26.611l-13.431.78-11.269-10.659-1.487-12.836Z" transform="translate(-259.056 -272.387)"/></g><g transform="translate(51.27 32.471)"><ellipse class="c" cx="1.246" cy="1.25" rx="1.246" ry="1.25" transform="translate(2.507 2.517)"/><path class="b" d="M240.544,263.1a3.767,3.767,0,1,0-3.753-3.766A3.764,3.764,0,0,0,240.544,263.1Z" transform="translate(-236.791 -255.564)"/></g></svg>